# xmcd
#
# Track frame offsets:
#	150
#	17330
#	41245
#	61730
#	76265
#
# Disc length: 1508 seconds
#
# Revision: 1
# Processed by: cddbd v1.5.2PL0 Copyright (c) Steve Scherf et al.
# Submitted via: audiograbber 1.83.01
#
DISCID=2f05e205
DTITLE=Ultra Bra - Kahdeksanvuotiaana Remix [CDM-EP)
DYEAR=1997
DGENRE=Pop
TTITLE0=Kahdeksanvuotiaana (Originaali)
TTITLE1=Kahdeksanvuotiaana (Syd‰nmix ª Edit)
TTITLE2=Tel Aviv, Tel Aviv (Club Mix)
TTITLE3=Nainen, Joka El‰‰ Vapaaherran El‰m‰‰
TTITLE4=Kahdeksanvuotiaana (Syd‰nmix ª Full Length)
EXTD=TR.
EXTT0=
EXTT1=
EXTT2=
EXTT3=
EXTT4=
PLAYORDER=
